<svg xmlns="http://www.w3.org/2000/svg" xmlns:xlink="http://www.w3.org/1999/xlink" viewBox="0 0 750 500">
  <defs>
    <style>
      .cls-1 {
        fill: none;
      }

      .cls-2 {
        isolation: isolate;
      }

      .cls-3 {
        fill: #f9fafc;
      }

      .cls-4 {
        clip-path: url(#clip-path);
      }

      .cls-5 {
        fill: url(#linear-gradient);
      }

      .cls-6 {
        fill: url(#linear-gradient-2);
      }

      .cls-7 {
        fill: url(#linear-gradient-3);
      }

      .cls-8 {
        fill: url(#linear-gradient-4);
      }

      .cls-9 {
        fill: url(#linear-gradient-5);
      }

      .cls-10 {
        fill: url(#linear-gradient-6);
      }

      .cls-11 {
        fill: url(#linear-gradient-7);
      }

      .cls-12 {
        fill: url(#linear-gradient-8);
      }

      .cls-13 {
        fill: url(#linear-gradient-9);
      }

      .cls-14, .cls-15 {
        mix-blend-mode: overlay;
      }

      .cls-14 {
        fill: url(#linear-gradient-10);
      }

      .cls-15 {
        fill: url(#linear-gradient-11);
      }
    </style>
    <clipPath id="clip-path">
      <rect class="cls-1" width="750" height="500"/>
    </clipPath>
    <linearGradient id="linear-gradient" x1="143.36" y1="614.98" x2="494.96" y2="60.98" gradientUnits="userSpaceOnUse">
      <stop offset="0" stop-color="#4e0380"/>
      <stop offset="1" stop-color="#553bd2"/>
    </linearGradient>
    <linearGradient id="linear-gradient-2" x1="400.14" y1="366.91" x2="145.14" y2="330.03" gradientUnits="userSpaceOnUse">
      <stop offset="0" stop-color="#553ad0" stop-opacity="0"/>
      <stop offset="1" stop-color="#553ad0"/>
    </linearGradient>
    <linearGradient id="linear-gradient-3" x1="361.68" y1="328.39" x2="259.04" y2="240.18" gradientUnits="userSpaceOnUse">
      <stop offset="0" stop-color="#5a0389"/>
      <stop offset="1" stop-color="#553bd2"/>
    </linearGradient>
    <linearGradient id="linear-gradient-4" x1="197.97" y1="212.28" x2="178.73" y2="358.22" xlink:href="#linear-gradient-3"/>
    <linearGradient id="linear-gradient-5" x1="776.98" y1="186.48" x2="736.89" y2="265.06" xlink:href="#linear-gradient-3"/>
    <linearGradient id="linear-gradient-6" x1="449.59" y1="385.08" x2="698.17" y2="197.45" xlink:href="#linear-gradient-3"/>
    <linearGradient id="linear-gradient-7" x1="397.69" y1="118.81" x2="385.33" y2="371.74" gradientUnits="userSpaceOnUse">
      <stop offset="0" stop-color="#f44ce1"/>
      <stop offset="0.99" stop-color="#565de9"/>
    </linearGradient>
    <linearGradient id="linear-gradient-8" x1="-95.02" y1="164.66" x2="129.42" y2="164.66" xlink:href="#linear-gradient-7"/>
    <linearGradient id="linear-gradient-9" x1="363.52" y1="374.52" x2="381.95" y2="144.98" gradientUnits="userSpaceOnUse">
      <stop offset="0" stop-color="#ff4b9a"/>
      <stop offset="1" stop-color="#ffec7e"/>
    </linearGradient>
    <linearGradient id="linear-gradient-10" x1="602.49" y1="291.61" x2="661.83" y2="203.41" gradientUnits="userSpaceOnUse">
      <stop offset="0" stop-color="#ff17d0"/>
      <stop offset="0.6" stop-color="#ff88ac"/>
      <stop offset="1" stop-color="#ffd394"/>
    </linearGradient>
    <linearGradient id="linear-gradient-11" x1="-43.05" y1="368.27" x2="56.68" y2="154.89" gradientUnits="userSpaceOnUse">
      <stop offset="0" stop-color="#ff17d0"/>
      <stop offset="1" stop-color="#ffd394"/>
    </linearGradient>
  </defs>
  <title>wave</title>
  <g class="cls-2">
    <g id="BACKGROUND_2" data-name="BACKGROUND 2">
      <g>
        <g>
          <g>
            <path class="cls-3" d="M385.1,465.47a7.3,7.3,0,0,0-1.1,1.45l-.47-.24a.6.6,0,1,0-.52.73l.19-.05.45.23a7.1,7.1,0,0,0-.54,1.75l.74.13a6.58,6.58,0,0,1,1.8-3.48Z"/>
            <path class="cls-3" d="M390.59,463.16l-.51,0-.07-.63a.69.69,0,0,0,.26-.64.72.72,0,1,0-1.42.17.71.71,0,0,0,.41.56l.07.62a8,8,0,0,0-2.06.65l.33.68a7,7,0,0,1,3-.67,6.71,6.71,0,0,1,1.48.16l.16-.74A7.56,7.56,0,0,0,390.59,463.16Z"/>
            <path class="cls-3" d="M397.19,465.71a.6.6,0,0,0,.53-.67.6.6,0,0,0-1.2.08l-.42.36a7.36,7.36,0,0,0-1.41-1.13l-.4.64a6.7,6.7,0,0,1,2.56,2.92l.69-.31a7.46,7.46,0,0,0-.94-1.55l.4-.35A.41.41,0,0,0,397.19,465.71Z"/>
            <path class="cls-3" d="M390,473.37c-.38,0-.77,0-1.15,0a15.87,15.87,0,0,1-2.48-.18,9.19,9.19,0,0,1-1.27-.29,6.2,6.2,0,0,0,11.34-1.38,10,10,0,0,1-2.46,1.12A16.69,16.69,0,0,1,390,473.37Z"/>
            <path class="cls-3" d="M390.59,464.68a6,6,0,0,0-6.08,5.94,5.86,5.86,0,0,0,.14,1.26c.67.49,2.71.89,5.35.74a11.55,11.55,0,0,0,6.67-2.16,5.44,5.44,0,0,0-.05-.58A6,6,0,0,0,390.59,464.68Zm-2.16,6.51a1.85,1.85,0,1,1,1.85-1.85A1.85,1.85,0,0,1,388.43,471.19Zm4.74-.9a1.36,1.36,0,1,1,1.36-1.36A1.36,1.36,0,0,1,393.17,470.29Z"/>
          </g>
          <path class="cls-3" d="M406.6,466.55a2.82,2.82,0,0,0-1.39-.24c-.55.07-.84.34-.84,1v.86h2.23v1.72h-2.23v5.45h-1.93V469.9H401.1v-1.72h1.34v-.89a2.46,2.46,0,0,1,2.57-2.78,3.91,3.91,0,0,1,1.59.31Z"/>
          <path class="cls-3" d="M411.3,469.88a3.27,3.27,0,0,0-.53-.05,1.44,1.44,0,0,0-1.51,1.62v3.9h-1.93v-7.17h1.87V469a2.25,2.25,0,0,1,2-1,1.8,1.8,0,0,1,1.1.34Z"/>
          <path class="cls-3" d="M419,471.76a6,6,0,0,1,0,.65h-5.09a1.75,1.75,0,0,0,1.85,1.49,2.94,2.94,0,0,0,1.81-.69l1.13,1.24a4.33,4.33,0,0,1-3.05,1.09,3.78,3.78,0,0,1-.1-7.55A3.47,3.47,0,0,1,419,471.76Zm-5.12-.67H417a1.6,1.6,0,0,0-3.18,0Z"/>
          <path class="cls-3" d="M426.62,471.76a6,6,0,0,1,0,.65H421.5a1.73,1.73,0,0,0,1.84,1.49,2.94,2.94,0,0,0,1.81-.69l1.14,1.24a4.35,4.35,0,0,1-3.06,1.09,3.78,3.78,0,0,1-.1-7.55A3.47,3.47,0,0,1,426.62,471.76Zm-5.12-.67h3.18a1.55,1.55,0,0,0-1.56-1.44A1.57,1.57,0,0,0,421.5,471.09Z"/>
          <path class="cls-3" d="M435,471.76a3.55,3.55,0,0,1-3.47,3.78,2.65,2.65,0,0,1-2.11-.93v3.7h-1.92V468.18h1.89V469a2.6,2.6,0,0,1,2.14-1A3.55,3.55,0,0,1,435,471.76Zm-5.67,0a1.85,1.85,0,1,0,1.84-2A1.84,1.84,0,0,0,429.29,471.76Z"/>
          <path class="cls-3" d="M438.07,465.84a1.24,1.24,0,0,1-2.47,0,1.24,1.24,0,1,1,2.47,0Zm-.26,9.51h-1.93v-7.17h1.93Z"/>
          <path class="cls-3" d="M441,470.74l2.7-2.56h2.37l-3.48,3.38,3.5,3.79h-2.37l-2.72-2.9v2.9H439.1V464.7H441Z"/>
        </g>
        <g>
          <path class="cls-3" d="M309.41,475.29v-1.06a3,3,0,0,1-2.39,1.23c-1.84,0-3.14-1.4-3.14-3.7S305.16,468,307,468a3,3,0,0,1,2.39,1.24v-3.76h1.1v9.77Zm0-1.92v-3.21a2.65,2.65,0,0,0-2.12-1.14c-1.42,0-2.27,1.17-2.27,2.74s.85,2.72,2.27,2.72A2.6,2.6,0,0,0,309.41,473.37Z"/>
          <path class="cls-3" d="M311.93,471.74a3.54,3.54,0,0,1,3.49-3.7c2.14,0,3.4,1.67,3.4,3.79v.28h-5.73a2.5,2.5,0,0,0,2.55,2.45,3.11,3.11,0,0,0,2.18-.9l.53.72a3.87,3.87,0,0,1-2.81,1.08A3.51,3.51,0,0,1,311.93,471.74ZM315.4,469a2.35,2.35,0,0,0-2.31,2.35h4.64A2.29,2.29,0,0,0,315.4,469Z"/>
          <path class="cls-3" d="M319.61,474.35l.57-.79a3.21,3.21,0,0,0,2.33,1c1.08,0,1.67-.51,1.67-1.21,0-1.72-4.38-.66-4.38-3.29,0-1.09.95-2,2.63-2a3.6,3.6,0,0,1,2.63,1l-.52.77a2.73,2.73,0,0,0-2.11-.9c-1,0-1.56.49-1.56,1.12,0,1.55,4.38.52,4.38,3.28,0,1.18-1,2.13-2.79,2.13A3.75,3.75,0,0,1,319.61,474.35Z"/>
          <path class="cls-3" d="M326.48,466.47a.74.74,0,0,1,.73-.75.76.76,0,0,1,.75.75.74.74,0,0,1-.75.73A.73.73,0,0,1,326.48,466.47Zm.19,8.82v-7.08h1.1v7.08Z"/>
          <path class="cls-3" d="M329.58,477.11l.56-.83a2.68,2.68,0,0,0,2.3,1,2,2,0,0,0,2.27-2.12v-1a3,3,0,0,1-2.37,1.26c-1.85,0-3.15-1.38-3.15-3.67s1.29-3.67,3.15-3.67a2.94,2.94,0,0,1,2.37,1.24v-1.07h1.1v6.87c0,2.35-1.64,3.08-3.37,3.08A3.63,3.63,0,0,1,329.58,477.11Zm5.13-3.86v-3.09A2.62,2.62,0,0,0,332.6,469c-1.42,0-2.27,1.13-2.27,2.69s.85,2.7,2.27,2.7A2.61,2.61,0,0,0,334.71,473.25Z"/>
          <path class="cls-3" d="M342.41,475.29v-4.63c0-1.24-.63-1.64-1.58-1.64a2.73,2.73,0,0,0-2.09,1.1v5.17h-1.1v-7.08h1.1v1a3.47,3.47,0,0,1,2.52-1.2,2,2,0,0,1,2.25,2.28v5Z"/>
          <path class="cls-3" d="M344.93,471.74a3.54,3.54,0,0,1,3.49-3.7c2.14,0,3.4,1.67,3.4,3.79v.28h-5.73a2.5,2.5,0,0,0,2.55,2.45,3.11,3.11,0,0,0,2.18-.9l.53.72a3.85,3.85,0,0,1-2.81,1.08A3.51,3.51,0,0,1,344.93,471.74ZM348.4,469a2.36,2.36,0,0,0-2.31,2.35h4.64A2.28,2.28,0,0,0,348.4,469Z"/>
          <path class="cls-3" d="M358.35,475.29v-1.06a3,3,0,0,1-2.39,1.23c-1.84,0-3.15-1.4-3.15-3.7S354.1,468,356,468a3,3,0,0,1,2.39,1.24v-3.76h1.1v9.77Zm0-1.92v-3.21a2.68,2.68,0,0,0-2.12-1.14c-1.42,0-2.27,1.17-2.27,2.74s.85,2.72,2.27,2.72A2.63,2.63,0,0,0,358.35,473.37Z"/>
          <path class="cls-3" d="M364.69,475.29v-9.77h1.1v3.76a3,3,0,0,1,2.39-1.24c1.84,0,3.15,1.46,3.15,3.72s-1.31,3.7-3.15,3.7a3,3,0,0,1-2.39-1.23v1.06Zm3.21-.81c1.44,0,2.29-1.15,2.29-2.72s-.85-2.74-2.29-2.74a2.65,2.65,0,0,0-2.11,1.14v3.21A2.59,2.59,0,0,0,367.9,474.48Z"/>
          <path class="cls-3" d="M372.53,477.06a1.73,1.73,0,0,0,.6.12,1,1,0,0,0,1.05-.75l.47-1.07-3-7.15h1.19l2.36,5.8,2.34-5.8h1.2l-3.54,8.51a2.1,2.1,0,0,1-2.08,1.44,3.52,3.52,0,0,1-.81-.1Z"/>
        </g>
      </g>
      <g class="cls-4">
        <rect class="cls-5" width="750" height="500"/>
        <g>
          <path class="cls-6" d="M131.78,264.53C174.32,423.81,297.16,513.2,453.49,297.4L335.76,348.84Z"/>
          <g>
            <path class="cls-7" d="M246.45,276.33q-16.77,20.78-31.62,36.3c65.9,25.53,125.93,42.83,157.43,35.5s52.41-31.37,74.42-55.61C361.36,213.09,321.25,183.67,246.45,276.33Z"/>
            <path class="cls-8" d="M245.86,310.08c-38.05-14.74-78.4-32.7-115-49.54"/>
            <path class="cls-9" d="M714.53,193.89c-10.15,12.63-29.29,49.26-54.94,85,26.19,7.54,53.69,9.1,86.42-6.42h57.33C777.48,219.64,747.13,153.32,714.53,193.89Z"/>
            <path class="cls-10" d="M553.22,232.7c-51.45.72-79.86,30.43-106.54,59.82,15.74,14.65,33,31,52.33,48.6,79.88,72.8,151.93,5.26,202.47-65.17C654,262.28,610.17,231.89,553.22,232.7Z"/>
          </g>
          <path class="cls-11" d="M4.23,241.42c-26.07,4.36-47,19.39-73.52,10.19-22.13-7.68-40.64-26-49-47.83-12.85-33.34-5.45-71.74,11.27-103.31,7.21-13.62,19.69-28,34.87-25.4,9.66,1.67,16.77,9.93,21.7,18.39C-39.3,112.65-29.77,129-4.91,129.79c15,.5,29.52-4.56,43.59-9.71s28.44-10.51,43.43-10.67c59.92-.61,82.88,66,106.2,109,21.68,40,55.36,87.89,102.61,90.88,41.43,2.61,86.46-32.57,113.08-61.15,30.08-32.29,61.2-67.26,95.48-95.84C582.59,83,625.06,182,694.69,210.65c40.84,16.79,70.65,1.46,94.79-34.19,19.93-29.42,33.56-64.6,62-85.87,19.58-14.63,53.13-17.7,64,4.18,9.17,18.45-4.53,39.61-17.51,55.61-24.32,30-48.87,60.18-78.83,84.53S753.08,277.63,714.56,280c-75.25,4.72-150.5-50.71-221.76-26.09-34.67,12-60.24,40.77-87.32,65.52S344.29,367,307.93,362.15c-35.75-4.76-62.06-34.26-90.13-56.91C157.6,256.66,80.53,228.66,4.23,241.42Z"/>
          <path class="cls-12" d="M-50.49,93.46c-4.93-8.46-12-16.72-21.7-18.39-8.65-1.49-16.41,2.54-22.83,8.8l24.91,76.19s35.67,24.54,123.67,64.68C66.3,230.55,81,237.4,96.86,244.8a274,274,0,0,1,32.56,9.77C103.6,146,70.11,129.39.48,129.73c-1.79.09-3.59.12-5.39.06C-29.77,129-39.3,112.65-50.49,93.46Z"/>
          <path class="cls-13" d="M852,202.35c-4,12.26-13.24,22-22.81,30.66-27.8,25.12-59.45,49.34-96.39,58.73-49.26,12.52-93.21-13.89-138.11-29.44-26.28-9.1-55.12-13.41-81.71-5.3-58.13,17.72-122.11,126.63-185.59,127.17-52.39.44-83.72-35.93-118-62.52-25.08-19.46-50.62-41.7-77.64-57.12-35.87-20.5-74.33-29-117.73-3.18l-1.36.81c-23.07,14.08-52.16,36.19-79,17.49C-80.9,269.47-86.07,250.48-89,232.9c-.39-2.38-.77-4.77-1.12-7.16s-.69-4.79-1-7.19a391.1,391.1,0,0,1,4-124.44C-85.46,85.71-81.53,75.53-73,75c9-.57,14,9.91,17.11,18.34,15,40.35,41.77,72,74.13,97.63,33.05,26.21,72,46.18,110.27,62.81l.72.31c28.57,12.38,55.68,26.47,84.22,38.71,57.13,24.48,116.68,32.63,171.83-1.81,50.74-31.67,85.61-90.78,152.33-87.33,62.49,3.22,96.42,77.11,157.46,74.52,20.49-.86,39.35-12.39,53.37-27.36,17.82-19,27.59-43.42,43.35-63.9a95.79,95.79,0,0,1,8.84-10.15,50.18,50.18,0,0,1,13.15-9.51c9-4.31,20.16-4.95,28.49.46C853.08,174.75,856,190.08,852,202.35Z"/>
          <path class="cls-14" d="M732.79,291.74a158.59,158.59,0,0,0,33.74-13C586,144.58,567.6,176.85,425.31,324.07h0c30.11-28.64,59.57-58.5,87.67-67.07,26.59-8.11,55.43-3.8,81.7,5.3C639.58,277.84,683.54,304.26,732.79,291.74Z"/>
          <path class="cls-15" d="M131.78,264.53c-35.87-20.5-74.33-29-117.73-3.18l-1.36.81c-23.07,14.08-52.16,36.19-79,17.49C-80.9,269.47-86.07,250.48-89,232.9c-.39-2.38-.77-4.77-1.12-7.16s-.68-4.79-1-7.19q-.91-7.2-1.57-14.41C-64,203.91-22.06,192.78,18.25,191c3.58-.16,7.15-.25,10.7-.25,42.75,0,82.08,12.74,99.57,63.06C129.71,257.19,130.8,260.76,131.78,264.53Z"/>
        </g>
      </g>
    </g>
  </g>
</svg>
